# xmcd
#
# Track frame offsets:
#	150
#	7238
#	14875
#	23066
#	33543
#	37520
#	42332
#	51523
#	59572
#	66240
#	71919
#	76545
#	87025
#	94371
#	98280
#	112069
#	116561
#	132201
#	140917
#	146692
#	155938
#	157481
#	166932
#	176566
#	194026
#	211232
#	222978
#	226301
#	239408
#	244458
#	253394
#	256779
#	262437
#
# Disc length: 3654 seconds
#
# Revision: 0
# Processed by: cddbd v1.5.1PL0 Copyright (c) Steve Scherf et al.
# Submitted via: dBpowerAMP V4.0
#
DISCID=020e4421
DTITLE=Dj Savage - Bon-A-Part 1
DYEAR=2005
DGENRE=Hiphop
TTITLE0=Intro
TTITLE1=Het Begin
TTITLE2=Dynamite - Tanman and Rawskillz
TTITLE3=Stillevens - Spacekees and Terilekst
TTITLE4=Sav Cutz (interlude)
TTITLE5=Message - Delisiuz Deleriuz Doloruz (skit)
TTITLE6=That's How It Is Pt. II - Casual
TTITLE7=Buitenwesten - Kubus and Duvel
TTITLE8=Duck Down - The Roots
TTITLE9=Hard Work - Trek-Life En Babu
TTITLE10=Mixtapes - The Nones
TTITLE11=What You So Mad At - Jadakiss
TTITLE12=Know About Me - Lil' Dap and Rim-K
TTITLE13=Hey Now (Savage Mix) - Xzibit
TTITLE14=Watch Out - MOP
TTITLE15=Girls 33 (Savage Cutz) - Prodigy
TTITLE16=PannaPunchLinez - Furiuz Styles
TTITLE17=Keizer Punchlijn Excl. - Djiggy Dje and Frankie
TTITLE18=Bridging The Gap - Nas
TTITLE19=Si Un Jour - Triptik
TTITLE20=In De Miks
TTITLE21=It's A Love Thing - Pete Rock Feat. CL.Smooth and Denosh
TTITLE22=Perenplan - Spacekees and Terilekst
TTITLE23=94 - Rohff
TTITLE24=Rap Music - Pacewon
TTITLE25=Do It Man - Masta Ace and Big Noyd
TTITLE26=Sav Cuts Pt. II (interlude)
TTITLE27=Track - Typhoon, Sticks and Nav
TTITLE28=Why You Wanna Get Funky.. - Del
TTITLE29=Leven De Hype - Colombiaanse Bloedgroep
TTITLE30=Freestyle - LGM
TTITLE31=Freestyle and D.Stroy - Shabazz The Disciple
TTITLE32=Kepala Batu - Tanman
EXTD=04/08/05, Mip
EXTT0=
EXTT1=
EXTT2=
EXTT3=
EXTT4=
EXTT5=
EXTT6=
EXTT7=
EXTT8=
EXTT9=
EXTT10=
EXTT11=
EXTT12=
EXTT13=
EXTT14=
EXTT15=
EXTT16=
EXTT17=
EXTT18=
EXTT19=
EXTT20=
EXTT21=
EXTT22=
EXTT23=
EXTT24=
EXTT25=
EXTT26=
EXTT27=
EXTT28=
EXTT29=
EXTT30=
EXTT31=
EXTT32=
PLAYORDER=
